<svg preserveAspectRatio="none" width="100%" height="100%" overflow="visible" style="display: block;" viewBox="0 0 29.8776 29.8776" fill="none" xmlns="http://www.w3.org/2000/svg">
<g id="mdi:instagram">
<path id="Vector" d="M9.71196 2.4895H20.1691C24.1528 2.4895 27.3895 5.72623 27.3895 9.70991V20.167C27.3895 22.082 26.6288 23.9186 25.2747 25.2726C23.9206 26.6267 22.0841 27.3875 20.1691 27.3875H9.71196C5.72828 27.3875 2.49155 24.1507 2.49155 20.167V9.70991C2.49155 7.79493 3.25227 5.95839 4.60636 4.60431C5.96045 3.25022 7.79699 2.4895 9.71196 2.4895ZM9.46298 4.97929C8.27438 4.97929 7.13445 5.45146 6.29399 6.29193C5.45352 7.1324 4.98135 8.27232 4.98135 9.46093V20.416C4.98135 22.8934 6.98563 24.8977 9.46298 24.8977H20.4181C21.6067 24.8977 22.7466 24.4255 23.5871 23.585C24.4275 22.7446 24.8997 21.6046 24.8997 20.416V9.46093C24.8997 6.98358 22.8954 4.97929 20.4181 4.97929H9.46298ZM21.4762 6.84664C21.889 6.84664 22.2848 7.01059 22.5766 7.30242C22.8684 7.59425 23.0324 7.99005 23.0324 8.40276C23.0324 8.81547 22.8684 9.21128 22.5766 9.50311C22.2848 9.79494 21.889 9.95888 21.4762 9.95888C21.0635 9.95888 20.6677 9.79494 20.3759 9.50311C20.0841 9.21128 19.9201 8.81547 19.9201 8.40276C19.9201 7.99005 20.0841 7.59425 20.3759 7.30242C20.6677 7.01059 21.0635 6.84664 21.4762 6.84664ZM14.9405 8.71399C16.5914 8.71399 18.1746 9.36978 19.3419 10.5371C20.5092 11.7044 21.165 13.2876 21.165 14.9385C21.165 16.5893 20.5092 18.1725 19.3419 19.3399C18.1746 20.5072 16.5914 21.163 14.9405 21.163C13.2897 21.163 11.7065 20.5072 10.5392 19.3399C9.37183 18.1725 8.71604 16.5893 8.71604 14.9385C8.71604 13.2876 9.37183 11.7044 10.5392 10.5371C11.7065 9.36978 13.2897 8.71399 14.9405 8.71399ZM14.9405 11.2038C13.95 11.2038 13.0001 11.5973 12.2997 12.2976C11.5993 12.998 11.2058 13.948 11.2058 14.9385C11.2058 15.929 11.5993 16.8789 12.2997 17.5793C13.0001 18.2797 13.95 18.6732 14.9405 18.6732C15.931 18.6732 16.881 18.2797 17.5814 17.5793C18.2817 16.8789 18.6752 15.929 18.6752 14.9385C18.6752 13.948 18.2817 12.998 17.5814 12.2976C16.881 11.5973 15.931 11.2038 14.9405 11.2038Z" fill="var(--fill-0, #290260)"/>
</g>
</svg>
