<svg preserveAspectRatio="none" width="100%" height="100%" overflow="visible" style="display: block;" viewBox="0 0 29.8776 29.8776" fill="none" xmlns="http://www.w3.org/2000/svg">
<g id="ic:baseline-tiktok">
<path id="Vector" d="M20.6655 7.24501C19.8147 6.2734 19.3458 5.02585 19.3459 3.7344H15.4992V19.1711C15.4701 20.0067 15.1176 20.7983 14.5161 21.379C13.9145 21.9596 13.111 22.2839 12.2749 22.2834C10.5071 22.2834 9.03815 20.8393 9.03815 19.0466C9.03815 16.9054 11.1047 15.2995 13.2335 15.9593V12.0254C8.93856 11.4528 5.17897 14.7891 5.17897 19.0466C5.17897 23.1922 8.61489 26.1426 12.2624 26.1426C16.1714 26.1426 19.3459 22.9681 19.3459 19.0466V11.2162C20.9058 12.3365 22.7785 12.9375 24.699 12.9342V9.08746C24.699 9.08746 22.3586 9.1995 20.6655 7.24501Z" fill="var(--fill-0, #290260)"/>
</g>
</svg>
