<svg preserveAspectRatio="none" width="100%" height="100%" overflow="visible" style="display: block;" viewBox="0 0 29.8776 29.8776" fill="none" xmlns="http://www.w3.org/2000/svg">
<g id="mdi:youtube">
<path id="Vector" d="M12.4486 18.6732L18.9096 14.9385L12.4486 11.2038V18.6732ZM26.8396 8.92562C27.0014 9.51072 27.1135 10.295 27.1882 11.2909C27.2753 12.2868 27.3127 13.1458 27.3127 13.8928L27.3874 14.9385C27.3874 17.6648 27.1882 19.6691 26.8396 20.9513C26.5284 22.0717 25.8063 22.7938 24.6859 23.105C24.1008 23.2668 23.0302 23.3789 21.3869 23.4536C19.7686 23.5407 18.2872 23.5781 16.9178 23.5781L14.9384 23.6528C9.72225 23.6528 6.47307 23.4536 5.19083 23.105C4.07042 22.7938 3.34838 22.0717 3.03715 20.9513C2.87532 20.3662 2.76327 19.5819 2.68858 18.586C2.60144 17.5901 2.56409 16.7311 2.56409 15.9842L2.4894 14.9385C2.4894 12.2121 2.68858 10.2079 3.03715 8.92562C3.34838 7.80521 4.07042 7.08317 5.19083 6.77195C5.77593 6.61011 6.84654 6.49807 8.48981 6.42337C10.1082 6.33623 11.5896 6.29888 12.959 6.29888L14.9384 6.22419C20.1545 6.22419 23.4037 6.42337 24.6859 6.77195C25.8063 7.08317 26.5284 7.80521 26.8396 8.92562Z" fill="var(--fill-0, #290260)"/>
</g>
</svg>
