<svg preserveAspectRatio="none" width="100%" height="100%" overflow="visible" style="display: block;" viewBox="0 0 22.4082 25.9121" fill="none" xmlns="http://www.w3.org/2000/svg">
<g id="Group">
<g id="Vector"></g>
<path id="Vector_2" fill-rule="evenodd" clip-rule="evenodd" d="M20.8558 2.06529C20.9634 1.94218 21.0458 1.79908 21.0981 1.64416C21.1505 1.48923 21.1718 1.3255 21.1609 1.16234C21.15 0.999167 21.107 0.839747 21.0345 0.69318C20.9619 0.546612 20.8612 0.415766 20.7381 0.308113C20.615 0.20046 20.4719 0.118108 20.317 0.0657584C20.1621 0.0134091 19.9983 -0.00791219 19.8352 0.00301196C19.672 0.0139361 19.5126 0.0568919 19.366 0.129426C19.2195 0.201961 19.0886 0.302654 18.981 0.425756L12.6195 7.69596L7.22041 0.49796C7.10445 0.343349 6.95409 0.217859 6.78123 0.131428C6.60836 0.0449977 6.41775 8.56358e-07 6.22449 8.56358e-07H1.2449C1.01371 8.56358e-07 0.787081 0.0643803 0.590417 0.185925C0.393753 0.30747 0.23482 0.481379 0.131428 0.688163C0.0280354 0.894948 -0.0157315 1.12644 0.00503084 1.3567C0.0257932 1.58696 0.110265 1.80688 0.24898 1.99184L8.26239 12.6756L1.55239 20.3441C1.44474 20.4672 1.36238 20.6103 1.31003 20.7653C1.25768 20.9202 1.23636 21.0839 1.24729 21.2471C1.25821 21.4102 1.30117 21.5697 1.3737 21.7162C1.44624 21.8628 1.54693 21.9936 1.67003 22.1013C1.79313 22.2089 1.93623 22.2913 2.09116 22.3437C2.24609 22.396 2.40981 22.4173 2.57298 22.4064C2.73615 22.3955 2.89557 22.3525 3.04214 22.28C3.18871 22.2074 3.31955 22.1068 3.4272 21.9837L9.78863 14.7122L15.1878 21.9102C15.3037 22.0648 15.4541 22.1903 15.6269 22.2767C15.7998 22.3632 15.9904 22.4082 16.1837 22.4082H21.1633C21.3945 22.4082 21.6211 22.3438 21.8177 22.2222C22.0144 22.1007 22.1733 21.9268 22.2767 21.72C22.3801 21.5132 22.4239 21.2817 22.4031 21.0515C22.3824 20.8212 22.2979 20.6013 22.1592 20.4163L14.1458 9.73261L20.8558 2.06529ZM16.8061 19.9184L3.73469 2.4898H5.60204L18.6735 19.9184H16.8061Z" fill="var(--fill-0, #290260)"/>
</g>
</svg>
