<svg preserveAspectRatio="none" width="100%" height="100%" overflow="visible" style="display: block;" viewBox="0 0 154.462 58.9952" fill="none" xmlns="http://www.w3.org/2000/svg">
<g id="Group">
<path id="Vector" d="M40.2132 39.9474C41.1734 38.2022 42.1308 36.457 43.0909 34.7145C49.18 32.2936 64.1976 23.1955 46.1765 27.988C47.4157 26.0951 48.6548 24.1994 49.8967 22.3065C52.1589 21.081 59.4543 19.1443 59.4899 17.5332C59.1808 16.0095 59.6458 16.4855 60.5212 15.5363C61.5114 12.6832 55.6083 13.72 50.3945 15.6731C44.6583 17.9243 36.0335 25.0009 42.2128 23.0369C37.1441 30.398 30.5024 42.6965 32.7209 47.1197C34.3512 48.8622 38.9248 46.9529 41.2527 45.979C48.146 43.0904 52.9577 36.9001 52.4078 36.0056C51.8279 35.3464 41.8709 39.8407 40.2132 39.9529V39.9474Z" fill="var(--fill-0, #00B1FD)"/>
<path id="Vector_2" d="M126.8 31.5549C126.409 30.7863 123.077 32.4303 114.452 34.1919C112.143 34.6624 110.223 34.9852 108.91 35.1931C109.531 33.6092 110.149 32.0254 110.77 30.4443C115.284 29.1341 118.437 27.2247 120.423 25.7831C126.671 21.5432 119.567 22.3666 113.946 23.3404C115.305 20.9113 116.662 18.4795 118.022 16.0504C121.121 14.762 123.525 13.8074 125.172 13.1618C125.741 12.9402 128.307 11.9363 128.23 11.3208C128.192 11.0145 127.541 11.0008 127.505 10.6944C127.924 9.72882 131.464 9.46895 128.753 8.00549C125.563 6.41072 114.239 8.81791 109.547 14.4338C108.007 16.1681 107.211 17.9734 110.338 16.7781C107.575 20.1974 98.28 35.7757 100.846 40.8609C105.463 46.9117 126.614 36.0766 126.803 31.5577L126.8 31.5549Z" fill="var(--fill-0, #00B1FD)"/>
<path id="Vector_3" d="M71.6637 31.2978C73.2886 30.6741 77.4218 28.855 80.6524 24.5193C82.879 21.5322 83.727 18.6272 84.0771 16.9777C84.8786 8.72763 74.0736 12.4369 63.8513 15.3009C63.0361 15.4568 62.2921 16.3158 62.9486 17.109C61.228 17.9105 61.6492 20.1864 63.4273 20.1563C59.5539 26.4889 55.738 34.2302 52.4746 41.2274C51.7907 42.6854 51.8782 44.3294 52.7755 45.5576C55.1991 48.1809 57.4257 44.9312 60.276 40.0813C62.2893 36.4267 63.8102 33.6475 64.568 32.2634C65.3886 35.4037 66.9204 39.8707 69.9513 44.5072C74.1557 50.9383 79.9412 55.7007 80.7618 55.025C81.4183 54.4834 78.4914 50.7933 75.4413 43.3255C73.439 38.4236 72.312 34.1673 71.6664 31.3005L71.6637 31.2978ZM71.5871 25.3673C69.5684 26.7323 67.5934 27.1837 66.4418 27.3587C67.5441 25.4029 68.6492 23.4443 69.7516 21.4885C70.5887 20.0059 72.0877 18.7612 73.9834 18.4029C74.4703 18.3099 75.8243 18.0555 76.2483 18.6983C77.0033 19.839 74.5195 23.3841 71.5844 25.3701L71.5871 25.3673Z" fill="var(--fill-0, #00B1FD)"/>
<path id="Vector_4" d="M102.185 12.5297C101.113 12.2069 99.8079 12.7786 99.6793 12.423C99.5699 12.1221 100.505 11.6461 100.44 11.0744C99.5152 9.34834 96.2354 10.3659 95.2287 10.8884C82.3366 17.5875 72.5765 42.9478 86.5957 44.176C97.8274 44.1979 108.616 14.9259 102.185 12.5297ZM94.7993 27.6102C88.4065 39.6625 84.2706 38.2784 89.7442 26.1385C96.0849 13.7661 100.421 15.0709 94.7993 27.6102Z" fill="var(--fill-0, #00B1FD)"/>
<path id="Vector_5" d="M42.8435 10.686C42.0885 9.56173 41.2405 9.67115 40.4637 9.67389C34.6153 10.2456 32.5035 17.8912 29.3468 24.303C26.5786 25.1565 23.5012 26.2589 20.8669 27.3312C25.8455 18.1565 30.2714 10.4398 33.7536 4.51484C34.6262 3.04317 34.1339 1.21042 32.6731 0.551182C30.058 -0.723535 26.8603 0.310463 25.0686 2.82707C19.5567 10.7708 13.8451 20.6895 9.38082 32.5094C-0.335474 37.1049 -4.66568 40.4093 7.10767 39.058C5.6743 43.5715 4.61022 47.7786 3.74855 51.931C2.85133 56.3871 2.72822 58.7341 3.37926 58.9748C4.62662 59.4343 8.72431 52.1307 15.6723 37.0666C19.1026 35.9806 22.7653 34.4816 26.3077 32.5039C25.7087 34.3284 25.1342 36.2679 24.6008 38.3167C23.8048 41.3804 23.2112 44.2854 22.7708 46.9935C22.5055 48.8071 22.6997 49.2804 22.9295 49.3734C24.7486 50.1092 34.6919 29.4046 35.4305 27.736C40.3296 16.6876 42.9748 13.9767 42.8435 10.686Z" fill="var(--fill-0, #00B1FD)"/>
<path id="Vector_6" d="M143.406 14.8278C144.093 15.3831 147.468 12.6339 149.804 10.0216C150.77 8.94384 155.601 3.53039 154.214 1.13688C153.347 -0.359407 150.327 0.00714248 149.312 0.130237C137.041 1.62105 121.769 22.2162 125.35 27.1838C126.441 28.6992 129.745 29.3913 139.3 25.9747C138.608 27.2522 137.577 29.0384 136.165 31.0681C130.733 38.886 121.629 45.0353 120.82 44.3678C120.333 43.9657 122.299 41.8321 121.9 41.4792C121.353 40.9978 116.26 44.8876 113.924 50.5417C113.283 52.0927 112.605 53.7285 113.311 54.6312C114.602 56.2834 119.564 54.2619 121.192 53.5972C135.268 47.8637 151.385 23.2912 147.077 19.0376C144.484 16.4772 135.334 22.1834 134.445 20.3096C133.846 19.0513 137.648 15.5663 139.861 13.8977C141.743 12.478 143.488 11.6027 144.689 11.0802C143.16 13.8293 143.146 14.6089 143.406 14.8223V14.8278Z" fill="var(--fill-0, #00B1FD)"/>
</g>
</svg>
