<svg preserveAspectRatio="none" width="100%" height="100%" overflow="visible" style="display: block;" viewBox="0 0 117.221 38.4658" fill="none" xmlns="http://www.w3.org/2000/svg">
<g id="Group">
<path id="Vector" d="M0 6.4465e-07V38.4658H11.973V24.5725H20.5924L23.6561 16.1665H11.973V8.3814H26.4846L29.5373 6.4465e-07H0Z" fill="var(--fill-0, black)"/>
<path id="Vector_2" d="M45.1713 6.4465e-07H33.201V38.4631H45.1713V6.4465e-07Z" fill="var(--fill-0, black)"/>
<path id="Vector_3" d="M53.409 6.4465e-07V38.4658H65.3793V24.5725H73.9987L77.0624 16.1665H65.3793V8.3814H79.8909L82.9436 6.4465e-07H53.409Z" fill="var(--fill-0, black)"/>
<path id="Vector_4" d="M117.218 38.4631H105.13L103.566 33.2958H90.0389L88.5426 38.4631H76.7556L90.7693 6.4465e-07H103.216L117.221 38.4631H117.218ZM101.585 25.9046L96.8009 9.88316L92.1753 25.9046H101.585Z" fill="var(--fill-0, black)"/>
<path id="Vector_5" d="M109.847 4.21237C109.555 4.21237 109.281 4.15766 109.027 4.04825C108.772 3.93883 108.548 3.78564 108.359 3.5969C108.168 3.40542 108.02 3.18385 107.908 2.92945C107.796 2.67505 107.741 2.40151 107.741 2.10882C107.741 1.81613 107.796 1.54258 107.908 1.28818C108.017 1.03379 108.168 0.809482 108.359 0.620737C108.551 0.429256 108.772 0.278806 109.027 0.169388C109.281 0.0599706 109.555 0.00526158 109.847 0.00526158C110.14 0.00526158 110.414 0.0599706 110.668 0.169388C110.922 0.278806 111.147 0.431991 111.335 0.620737C111.527 0.812218 111.677 1.03379 111.787 1.28818C111.896 1.54258 111.954 1.81613 111.954 2.10882C111.954 2.40151 111.896 2.67505 111.787 2.92945C111.677 3.18385 111.524 3.40815 111.335 3.5969C111.144 3.78838 110.922 3.93883 110.668 4.04825C110.414 4.15766 110.14 4.21237 109.847 4.21237ZM109.847 3.80479C110.069 3.80479 110.277 3.76376 110.468 3.6817C110.66 3.5969 110.829 3.47927 110.974 3.32883C111.119 3.17838 111.231 2.99784 111.316 2.78994C111.401 2.58205 111.439 2.35501 111.439 2.10882C111.439 1.86263 111.398 1.63559 111.316 1.42769C111.231 1.2198 111.119 1.03926 110.974 0.88881C110.829 0.738361 110.662 0.620736 110.468 0.535938C110.277 0.451139 110.069 0.410108 109.847 0.410108C109.626 0.410108 109.418 0.453874 109.226 0.535938C109.035 0.620736 108.868 0.735625 108.723 0.88881C108.578 1.03926 108.466 1.2198 108.381 1.42769C108.296 1.63559 108.255 1.86263 108.255 2.10882C108.255 2.35501 108.299 2.58205 108.381 2.78994C108.466 2.99784 108.578 3.17838 108.723 3.32883C108.868 3.47927 109.035 3.59963 109.226 3.6817C109.418 3.7665 109.626 3.80479 109.847 3.80479ZM109.038 0.905222H109.924C110.211 0.905222 110.43 0.959931 110.58 1.06661C110.731 1.1733 110.805 1.35384 110.805 1.6055C110.805 1.81065 110.75 1.96384 110.641 2.06505C110.531 2.16626 110.378 2.22644 110.178 2.24559L110.821 3.29053H110.367L109.746 2.262H109.478V3.29053H109.035V0.902487L109.038 0.905222ZM109.481 1.92554H109.872C109.938 1.92554 110 1.92281 110.058 1.9146C110.115 1.9064 110.167 1.88998 110.214 1.8681C110.258 1.84348 110.293 1.81065 110.323 1.76415C110.348 1.71765 110.364 1.65473 110.364 1.57267C110.364 1.50155 110.348 1.44684 110.321 1.40307C110.29 1.35931 110.252 1.32648 110.208 1.3046C110.162 1.27998 110.107 1.26356 110.04 1.25535C109.973 1.24715 109.896 1.24168 109.806 1.24168H109.481V1.92827V1.92554Z" fill="var(--fill-0, black)"/>
</g>
</svg>
